<svg width="40" height="32" fill="none" xmlns="http://www.w3.org/2000/svg"><path d="M37.062 30.159c-2.294 2.455-6.177 2.455-8.647 0-2.295-2.455-2.295-6.137.176-8.416 1.235-1.228 2.647-1.579 4.06-1.93C35.473 19.289 39.71 9.47 26.12.527L26.472 0c7.236 3.682 8.825 7.189 10.766 10.345 3.883 7.19 3.53 16.307-.177 19.814zm-26.12 0c-2.294 2.455-6.177 2.455-8.648 0C0 27.704 0 24.022 2.471 21.743c1.235-1.228 2.647-1.579 4.059-1.93C9.354 19.289 13.59 9.47 0 .527L.353 0c7.236 3.682 8.824 7.189 10.766 10.345 3.883 7.19 3.53 16.307-.177 19.814z" fill="#9D875C"/></svg>