<svg width="40" height="32" fill="none" xmlns="http://www.w3.org/2000/svg"><path d="M2.938 30.159c2.294 2.455 6.177 2.455 8.647 0 2.295-2.455 2.295-6.137-.176-8.416-1.235-1.228-2.647-1.579-4.06-1.93C4.527 19.289.29 9.47 13.88.527L13.528 0C6.29 3.682 4.702 7.189 2.76 10.345c-3.883 7.19-3.53 16.307.177 19.814zm26.12 0c2.294 2.455 6.177 2.455 8.648 0C40 27.704 40 24.022 37.529 21.743c-1.235-1.228-2.647-1.579-4.059-1.93C30.646 19.289 26.41 9.47 40 .527L39.647 0c-7.236 3.682-8.824 7.189-10.766 10.345-3.883 7.19-3.53 16.307.177 19.814z" fill="#9D875C"/></svg>