<svg width="72" height="67" fill="none" xmlns="http://www.w3.org/2000/svg"><path d="M11.695 45.19c-.65-.47-1.276-.955-1.877-1.455m-2.681-2.55C3.265 37 1 31.928 1 26.47c.037-33.956 69.946-33.965 69.976 0 .435 7.806-5.143 13.532-10.302 19.209-1.752 5.5-11.326 21.336-14.913 20.27-2.505-.745-.065-14.108-3.456-13.656-3.466.464-2.554.194-6.32.194-7.724 0-14.863-1.861-20.651-5.016M49.72 34.339c0 5.456-6.143 9.88-13.72 9.88-7.578 0-13.72-4.424-13.72-9.88 0-5.457 6.142-9.88 13.72-9.88 7.577 0 13.72 4.423 13.72 9.88zM26.373 17.235c1.039 3.02-.144 6.154-2.642 7.002-2.499.848-5.366-.911-6.405-3.93-1.039-3.02.144-6.155 2.642-7.003 2.499-.848 5.366.912 6.405 3.931zm25.665-3.919c2.498.848 3.681 3.983 2.643 7.002-1.04 3.02-3.907 4.78-6.405 3.931-2.498-.848-3.68-3.983-2.642-7.002 1.039-3.02 3.906-4.78 6.404-3.93zM40.78 15.323c0 3.19-2.14 5.777-4.78 5.777s-4.78-2.586-4.78-5.777c0-3.19 2.14-5.777 4.78-5.777s4.78 2.587 4.78 5.777z" stroke="#000" stroke-width="2" stroke-linecap="round" stroke-linejoin="round"/></svg>