<?xml version="1.0" encoding="utf-8"?><svg viewBox="0 0 217 78" xmlns="http://www.w3.org/2000/svg" xmlns:xlink="http://www.w3.org/1999/xlink"><style>:root>svg{display:none}:root>svg:target{display:block}</style><svg fill="none" viewBox="0 0 82 69" id="accessories" xmlns="http://www.w3.org/2000/svg"><path d="m16.108 15.603-1.408.826m-4.26 2.499L1 24.465l6.79 10.352L41 15.808l33.21 19.008L81 24.464S41.07 1.047 40.999 1c-.037.024-10.39 6.098-20.816 12.212m48.95 37.964V31.911m-56.267 0v30.553a4.992 4.992 0 0 0 4.99 4.991h2.872a5.16 5.16 0 0 0 5.16-5.16V43.472a4.574 4.574 0 0 1 4.573-4.573H51.54a4.572 4.572 0 0 1 4.573 4.574v12.26m18.406 2.4a4.528 4.528 0 0 0 .92-3.909 4.512 4.512 0 0 0-8.901 1.034c0 .16.01.475.01.475H50.005s.015-.396.01-.598c-.063-2.33-1.966-4.275-4.294-4.382a4.506 4.506 0 0 0-4.69 5.03 4.51 4.51 0 0 0 1.015 2.363 1.952 1.952 0 0 1-.01 2.464 4.528 4.528 0 0 0-.921 3.908 4.511 4.511 0 0 0 8.901-1.033c0-.16-.01-.475-.01-.475h16.541s-.014.396-.008.598c.06 2.33 1.962 4.273 4.288 4.382a4.508 4.508 0 0 0 4.695-5.03 4.51 4.51 0 0 0-1.015-2.363 1.951 1.951 0 0 1 .011-2.464z" stroke="#000" stroke-width="2" stroke-linecap="round" stroke-linejoin="round"/></svg><svg fill="none" viewBox="0 0 53 24" id="arrow-care" xmlns="http://www.w3.org/2000/svg"><path fill-rule="evenodd" clip-rule="evenodd" d="M53 11.74v.52c-5.004 2.61-9.213 6.56-10.757 11.74-.001.003-.355-.213-.373-.22-.02-.006.02.004.022 0 1.17-3.963 5.603-8.662 8.848-11.52-15.862.37-34.891-.185-50.74.262v-1.044l50.74.261C47.495 8.882 43.16 4.006 41.98 0h.544C44.055 5.19 47.318 8.348 53 11.74z" fill="#9D875C"/></svg><svg fill="none" viewBox="0 0 34 16" id="arrow-left" xmlns="http://www.w3.org/2000/svg"><path fill-rule="evenodd" clip-rule="evenodd" d="M0 7.826v.348C3.21 9.913 5.91 12.547 6.901 16c0 .002.227-.142.24-.146.012-.005-.014.002-.015 0-.75-2.642-3.595-5.775-5.676-7.68 10.175.246 22.383-.124 32.55.174v-.696l-32.55.174C3.53 5.921 6.312 2.671 7.07 0h-.35C5.738 3.46 3.645 5.565 0 7.826z" fill="#C1AB81"/></svg><svg fill="none" viewBox="0 0 54 26" id="arrow-right" xmlns="http://www.w3.org/2000/svg"><path fill-rule="evenodd" clip-rule="evenodd" d="M54 12.717v.566C48.901 16.109 44.613 20.389 43.04 26c-.001.004-.361-.231-.38-.238-.02-.007.02.004.022 0 1.192-4.293 5.71-9.384 9.016-12.48-16.162.4-35.55-.201-51.698.283v-1.13l51.698.282C48.392 9.622 43.974 4.34 42.772 0h.555C44.887 5.622 48.21 9.043 54 12.717z" fill="#C1AB81"/></svg><svg fill="none" viewBox="0 0 33 73" id="arrow-up" xmlns="http://www.w3.org/2000/svg"><path fill-rule="evenodd" clip-rule="evenodd" d="M16.141 0h.718c3.587 6.892 9.02 12.69 16.14 14.817.006.001-.292.488-.3.514-.01.026.004-.03-.002-.03-5.448-1.613-11.91-7.72-15.838-12.189.507 21.848-.257 48.059.358 69.888h-1.434l.358-69.888C12.213 7.582 5.508 13.553 0 15.178v-.75C7.136 12.32 11.478 7.827 16.141 0z" fill="#C1AB81"/></svg><svg fill="none" viewBox="0 0 70 70" id="care" xmlns="http://www.w3.org/2000/svg"><path d="M25.945 29.279 45.922 9.3a3.191 3.191 0 0 1 4.514 0l10.267 10.263a3.193 3.193 0 0 1 0 4.514L21.829 62.95a3.194 3.194 0 0 1-4.514 0L7.048 52.689a3.191 3.191 0 0 1 0-4.514l8.571-8.57m3.478-3.478 3.067-3.067m5.665 23.888-3.299-3.299m10.015-3.418-3.299-3.299M47.978 36.8l-3.299-3.3m10.015-3.417-3.299-3.299M41.262 43.515l-3.3-3.299M7.537 62.463 1 69m68-54.597L55.597 1M5.686 56.612l2.64-2.64 7.702 7.7-2.64 2.641a2.828 2.828 0 0 1-4 0l-3.703-3.702a2.829 2.829 0 0 1 0-4h.001zM52.68 11.544l6.73-6.73 5.777 5.776-6.731 6.73-5.776-5.776z" stroke="#000" stroke-width="2" stroke-linecap="round" stroke-linejoin="round"/></svg><svg fill="none" viewBox="0 0 16 16" id="clock" xmlns="http://www.w3.org/2000/svg"><path fill-rule="evenodd" clip-rule="evenodd" d="M16 8A8 8 0 1 1 0 8a8 8 0 0 1 16 0zM8 3.5a.5.5 0 0 0-1 0V9a.5.5 0 0 0 .252.434l3.5 2a.5.5 0 0 0 .496-.868L8 8.71V3.5z" fill="#9D875C"/></svg><svg fill="none" viewBox="0 0 62 77" id="food" xmlns="http://www.w3.org/2000/svg"><path d="M11.672 46.616 1.154 65.717a1.232 1.232 0 0 0 .09 1.332c.142.191.336.339.56.426a1.3 1.3 0 0 0 .705.069l9.402-1.695a1.3 1.3 0 0 1 .837.13c.256.135.458.353.57.615l3.714 8.64c.094.218.248.405.446.54a1.294 1.294 0 0 0 1.855-.431L26.61 62.13m28.164-7.443 6.073 11.03a1.233 1.233 0 0 1-.09 1.332 1.275 1.275 0 0 1-.56.427 1.301 1.301 0 0 1-.705.068l-9.404-1.695a1.3 1.3 0 0 0-.838.13 1.262 1.262 0 0 0-.57.615l-3.714 8.64a1.258 1.258 0 0 1-.446.54 1.294 1.294 0 0 1-1.855-.431L32.384 56.67m25.719-33.514-1.442 4.353a4.526 4.526 0 0 0 0 2.855l1.442 4.351a4.534 4.534 0 0 1 0 2.854 4.625 4.625 0 0 1-1.711 2.31l-3.777 2.69a4.626 4.626 0 0 0-1.712 2.31l-1.442 4.351a4.623 4.623 0 0 1-1.711 2.31 4.774 4.774 0 0 1-2.77.882h-4.666a4.78 4.78 0 0 0-2.77.882l-3.777 2.69a4.774 4.774 0 0 1-2.769.882 4.775 4.775 0 0 1-2.77-.882l-3.776-2.69a4.773 4.773 0 0 0-2.769-.882h-4.667a4.775 4.775 0 0 1-2.77-.882 4.625 4.625 0 0 1-1.71-2.31l-1.443-4.351a4.63 4.63 0 0 0-1.711-2.31l-3.777-2.69a4.625 4.625 0 0 1-1.712-2.31 4.533 4.533 0 0 1 0-2.854l1.443-4.351a4.54 4.54 0 0 0 0-2.855l-1.443-4.352a4.532 4.532 0 0 1 0-2.855 4.624 4.624 0 0 1 1.712-2.31l3.777-2.69a4.628 4.628 0 0 0 1.711-2.308l1.442-4.353a4.626 4.626 0 0 1 1.714-2.307 4.776 4.776 0 0 1 2.77-.88h4.672a4.78 4.78 0 0 0 2.769-.882l3.777-2.69A4.774 4.774 0 0 1 31.006 1c.995 0 1.964.309 2.769.882l3.777 2.69a4.78 4.78 0 0 0 2.77.882h4.666c.995 0 1.964.309 2.77.882a4.625 4.625 0 0 1 1.71 2.31l1.443 4.351a4.625 4.625 0 0 0 1.712 2.31l3.777 2.69a4.625 4.625 0 0 1 1.705 2.308 4.534 4.534 0 0 1-.002 2.852zM41.801 34.73c0 4.24-4.836 7.677-10.802 7.677-5.965 0-10.801-3.437-10.801-7.677S25.034 27.053 31 27.053c5.965 0 10.801 3.437 10.801 7.677zm-18.38-13.29c.818 2.346-.113 4.782-2.08 5.441-1.966.66-4.224-.708-5.041-3.054-.818-2.346.113-4.782 2.08-5.441 1.966-.66 4.224.708 5.042 3.054zm20.204-3.045c1.966.66 2.898 3.095 2.08 5.441-.818 2.346-3.075 3.714-5.042 3.055-1.966-.66-2.898-3.095-2.08-5.441.818-2.346 3.075-3.714 5.042-3.055zm-8.862 1.559c0 2.48-1.685 4.489-3.763 4.489-2.079 0-3.764-2.01-3.764-4.489 0-2.48 1.685-4.489 3.764-4.489 2.078 0 3.763 2.01 3.763 4.489z" stroke="#222220" stroke-width="2" stroke-linecap="round" stroke-linejoin="round"/></svg><svg fill="none" viewBox="0 0 16 16" id="geo" xmlns="http://www.w3.org/2000/svg"><path fill-rule="evenodd" clip-rule="evenodd" d="M8 16s6-5.686 6-10A6 6 0 0 0 2 6c0 4.314 6 10 6 10zm0-7a3 3 0 1 0 0-6 3 3 0 0 0 0 6z" fill="#9D875C"/></svg><svg fill="none" viewBox="0 0 24 24" id="instagram" xmlns="http://www.w3.org/2000/svg"><path d="M12 2.16c3.206 0 3.586.015 4.847.071 1.172.052 1.805.249 2.226.413a3.71 3.71 0 0 1 1.379.895c.421.422.68.82.895 1.378.164.422.36 1.06.412 2.227.057 1.265.07 1.645.07 4.847 0 3.206-.013 3.586-.07 4.846-.051 1.172-.248 1.805-.412 2.227a3.714 3.714 0 0 1-.895 1.378 3.69 3.69 0 0 1-1.379.895c-.421.165-1.059.361-2.226.413-1.266.056-1.645.07-4.847.07-3.206 0-3.586-.014-4.847-.07-1.172-.052-1.805-.248-2.226-.413a3.71 3.71 0 0 1-1.379-.895 3.691 3.691 0 0 1-.895-1.378c-.164-.422-.36-1.06-.412-2.227-.057-1.265-.07-1.645-.07-4.846 0-3.207.013-3.586.07-4.847.051-1.172.248-1.805.412-2.227.216-.558.478-.96.895-1.378.422-.422.82-.68 1.379-.895.421-.164 1.059-.361 2.226-.413 1.261-.056 1.64-.07 4.847-.07zM12 0C8.742 0 8.334.014 7.055.07 5.78.127 4.903.333 4.144.628a5.857 5.857 0 0 0-2.128 1.388A5.88 5.88 0 0 0 .628 4.139C.333 4.903.127 5.775.07 7.05.014 8.334 0 8.742 0 12s.014 3.666.07 4.945c.057 1.275.263 2.152.558 2.911.31.792.717 1.463 1.388 2.128a5.866 5.866 0 0 0 2.123 1.383c.764.296 1.636.502 2.911.558 1.28.056 1.688.07 4.945.07 3.258 0 3.666-.014 4.946-.07 1.275-.056 2.151-.262 2.91-.558a5.866 5.866 0 0 0 2.124-1.383 5.866 5.866 0 0 0 1.383-2.123c.295-.764.501-1.636.558-2.911.056-1.28.07-1.688.07-4.945 0-3.258-.014-3.666-.07-4.946-.057-1.275-.263-2.151-.558-2.91a5.62 5.62 0 0 0-1.374-2.133A5.866 5.866 0 0 0 19.861.633C19.097.338 18.225.13 16.95.075 15.666.015 15.258 0 12 0z" fill="#C1AB81"/><path d="M12 5.836A6.166 6.166 0 0 0 5.836 12 6.166 6.166 0 0 0 12 18.164 6.166 6.166 0 0 0 18.164 12 6.166 6.166 0 0 0 12 5.836zm0 10.162A3.999 3.999 0 1 1 12.001 8 3.999 3.999 0 0 1 12 15.998zm7.847-10.406a1.44 1.44 0 1 1-2.879 0 1.44 1.44 0 0 1 2.879 0z" fill="#C1AB81"/></svg><svg fill="none" viewBox="0 0 217 78" id="logo" xmlns="http://www.w3.org/2000/svg"><path d="M22.012 0H.377L0 4.076h.047C3.394 2.483 5.562.75 8.06.75h.99v29.423h4.289V.75h.942c2.499 0 4.761 1.78 8.108 3.373h.094L22.012 0zm26.611 0v14.102H33.775V0h-4.242v30.173h4.242v-15.32h14.848v15.32h4.242V0h-4.242zM68.97 29.423h-2.403v-14.57h7.918v-.75h-7.918V.75h2.403c3.583 0 7.825.28 9.427 4.544h.896L79.246 0H62.325v30.173h16.92l.048-5.295h-.896c-1.602 4.264-5.844 4.545-9.427 4.545zM139.638 0c-1.273 3.936-2.31 6.934-4.478 12.978l-3.677 10.589L123.376 0h-.188l-8.296 23.567L106.785 0h-4.525l10.747 30.829h.141l8.343-23.614 8.201 23.614h.142l6.127-17.57C137.799 8.105 139.119 4.31 140.91 0h-1.272zm12.598 30.173V0h-4.242v30.173h4.242zm25.566-5.295c-1.603 4.264-5.845 4.545-9.427 4.545h-2.404V0h-4.242v30.173h16.921l.047-5.295h-.895zM196.564 0h-10.605v30.173h9.898c10.322 0 16.779-5.67 16.779-15.415C212.636 5.201 206.179 0 196.564 0zm0 29.517c-3.347 0-5.279-.14-6.363-.375V.702h5.986c7.164 0 11.783 5.717 11.783 14.29 0 9.277-4.148 14.525-11.406 14.525zM7.194 77.025V46.852H2.952v30.173h4.242zm18.57-30.08v-.093h-1.602c-2.31 2.202-5.185 4.873-9.663 9.09l-5.986 5.621L18.93 77.025h5.609L12 59.407l3.017-2.858c3.865-3.654 7.211-6.746 10.746-9.604zm11.229 30.08V46.852H32.75v30.173h4.242zm29.76-30.173V70.23L50.115 46.85h-5.043v.142l2.027 2.81v27.175h.848V50.975L67.225 77.54h.377V46.852h-.849zm25.775 16.492.47.75h6.977v10.213c-1.838 1.453-4.667 2.483-7.73 2.483-7.07 0-11.737-6.137-11.737-14.899 0-8.995 4.243-14.852 10.888-14.852 2.168 0 3.441 1.312 4.384 3.046 1.508 2.717 5.137 3.326 7.353 1.171l.094-.047c-2.498-2.764-6.552-4.826-11.454-4.826-9.096 0-15.93 6.185-15.93 15.79 0 9.698 6.456 15.367 16.213 15.367 5.374 0 9.144-1.827 11.831-3.795V63.344h-11.36zm30.421-16.492h-10.605v30.173h9.898c10.323 0 16.78-5.67 16.78-15.415 0-9.557-6.457-14.758-16.073-14.758zm0 29.517c-3.346 0-5.279-.14-6.363-.375v-28.44h5.986c7.165 0 11.784 5.717 11.784 14.29 0 9.277-4.148 14.525-11.407 14.525zm39.104-29.986c-9.05 0-16.026 6.185-16.026 15.883 0 9.511 6.835 15.274 15.507 15.274 9.003 0 16.026-6.184 16.026-15.883 0-9.51-6.835-15.274-15.507-15.274zm-.094 30.501c-6.646 0-11.265-6.044-11.265-15.086 0-8.902 4.336-14.759 11.029-14.759 6.552 0 11.171 6.044 11.171 15.087 0 8.902-4.337 14.758-10.935 14.758zm51.743-30.032h-3.818L201.07 69.06l-10.039-22.208h-4.572v.14l.895 1.968-2.639 28.018h.801l2.498-26.472 11.312 24.644h.189l10.181-25.674 2.592 27.549h4.289l-2.875-30.173z" fill="#C1AB81"/></svg><svg fill="none" viewBox="0 0 24 24" id="medium" xmlns="http://www.w3.org/2000/svg"><g clip-path="url(#la)" fill="#C1AB81"><path d="M13.537 11.828c0 3.77-3.03 6.827-6.768 6.827S0 15.598 0 11.828 3.03 5 6.769 5c3.738 0 6.768 3.057 6.768 6.828zm7.426 0c0 3.549-1.515 6.427-3.385 6.427-1.869 0-3.384-2.878-3.384-6.427 0-3.55 1.515-6.428 3.384-6.428 1.87 0 3.385 2.877 3.385 6.428m3.037 0c0 3.179-.533 5.758-1.19 5.758-.657 0-1.19-2.578-1.19-5.758s.533-5.759 1.19-5.759c.657 0 1.19 2.578 1.19 5.759z"/></g><defs><clipPath id="la"><path fill="#fff" d="M0 0h24v24H0z"/></clipPath></defs></svg><svg fill="none" viewBox="0 0 40 32" id="paragraph-close" xmlns="http://www.w3.org/2000/svg"><path d="M37.062 30.159c-2.294 2.455-6.177 2.455-8.647 0-2.295-2.455-2.295-6.137.176-8.416 1.235-1.228 2.647-1.579 4.06-1.93C35.473 19.289 39.71 9.47 26.12.527L26.472 0c7.236 3.682 8.825 7.189 10.766 10.345 3.883 7.19 3.53 16.307-.177 19.814zm-26.12 0c-2.294 2.455-6.177 2.455-8.648 0C0 27.704 0 24.022 2.471 21.743c1.235-1.228 2.647-1.579 4.059-1.93C9.354 19.289 13.59 9.47 0 .527L.353 0c7.236 3.682 8.824 7.189 10.766 10.345 3.883 7.19 3.53 16.307-.177 19.814z" fill="#9D875C"/></svg><svg fill="none" viewBox="0 0 40 32" id="paragraph-open" xmlns="http://www.w3.org/2000/svg"><path d="M2.938 30.159c2.294 2.455 6.177 2.455 8.647 0 2.295-2.455 2.295-6.137-.176-8.416-1.235-1.228-2.647-1.579-4.06-1.93C4.527 19.289.29 9.47 13.88.527L13.528 0C6.29 3.682 4.702 7.189 2.76 10.345c-3.883 7.19-3.53 16.307.177 19.814zm26.12 0c2.294 2.455 6.177 2.455 8.648 0C40 27.704 40 24.022 37.529 21.743c-1.235-1.228-2.647-1.579-4.059-1.93C30.646 19.289 26.41 9.47 40 .527L39.647 0c-7.236 3.682-8.824 7.189-10.766 10.345-3.883 7.19-3.53 16.307.177 19.814z" fill="#9D875C"/></svg><svg fill="none" viewBox="0 0 72 67" id="paw" xmlns="http://www.w3.org/2000/svg"><path d="M11.695 45.19c-.65-.47-1.276-.955-1.877-1.455m-2.681-2.55C3.265 37 1 31.928 1 26.47c.037-33.956 69.946-33.965 69.976 0 .435 7.806-5.143 13.532-10.302 19.209-1.752 5.5-11.326 21.336-14.913 20.27-2.505-.745-.065-14.108-3.456-13.656-3.466.464-2.554.194-6.32.194-7.724 0-14.863-1.861-20.651-5.016M49.72 34.339c0 5.456-6.143 9.88-13.72 9.88-7.578 0-13.72-4.424-13.72-9.88 0-5.457 6.142-9.88 13.72-9.88 7.577 0 13.72 4.423 13.72 9.88zM26.373 17.235c1.039 3.02-.144 6.154-2.642 7.002-2.499.848-5.366-.911-6.405-3.93-1.039-3.02.144-6.155 2.642-7.003 2.499-.848 5.366.912 6.405 3.931zm25.665-3.919c2.498.848 3.681 3.983 2.643 7.002-1.04 3.02-3.907 4.78-6.405 3.931-2.498-.848-3.68-3.983-2.642-7.002 1.039-3.02 3.906-4.78 6.404-3.93zM40.78 15.323c0 3.19-2.14 5.777-4.78 5.777s-4.78-2.586-4.78-5.777c0-3.19 2.14-5.777 4.78-5.777s4.78 2.587 4.78 5.777z" stroke="#000" stroke-width="2" stroke-linecap="round" stroke-linejoin="round"/></svg></svg>