<svg width="26" height="27" fill="none" xmlns="http://www.w3.org/2000/svg"><path fill-rule="evenodd" clip-rule="evenodd" d="M4.657 24.718c-.126.72.585 1.285 1.213.962l7.132-3.666 7.133 3.666c.628.323 1.339-.241 1.212-.962L20 17.032l5.724-5.454c.535-.51.258-1.442-.459-1.544l-7.96-1.13-3.549-7.031a.834.834 0 00-1.505 0L8.7 8.903.74 10.035c-.716.102-.993 1.034-.458 1.544l5.724 5.454-1.349 7.686zm7.97-4.498l-5.99 3.078 1.13-6.43a.917.917 0 00-.265-.821l-4.724-4.502 6.585-.935a.853.853 0 00.638-.467l3.001-5.945 3.001 5.945a.853.853 0 00.639.467l6.585.935-4.724 4.502a.917.917 0 00-.264.82l1.128 6.431-5.99-3.078a.817.817 0 00-.75 0z" fill="#9D875C"/></svg>